<?xml version="1.0" encoding="utf-8"?>
<!-- Generator: Adobe Illustrator 26.3.1, SVG Export Plug-In . SVG Version: 6.00 Build 0)  -->
<svg version="1.1" id="Layer_1" xmlns="http://www.w3.org/2000/svg" xmlns:xlink="http://www.w3.org/1999/xlink" x="0px" y="0px"
	 viewBox="0 0 41 42" style="enable-background:new 0 0 41 42;" xml:space="preserve">
<style type="text/css">
	.st0{fill-rule:evenodd;clip-rule:evenodd;fill:#FE3366;}
</style>
<g id="_x2D_">
	<g id="Loading-v1" transform="translate(-60.000000, -718.000000)">
		<g id="Logo-PAMM" transform="translate(60.300000, 718.720000)">
			<path id="Fill-210" class="st0" d="M0,0l0,19.2h5.5v-4.4l13.4,0v0l0-14.7H0z M5.5,9.3h7.9V5.5H5.5V9.3z"/>
			<polygon id="Fill-211" class="st0" points="13.4,21.8 9.4,25.9 5.5,21.8 0,21.8 0,41 5.5,41 5.5,29.7 9.4,33.7 13.4,29.7 
				13.4,41 18.9,41 18.9,21.8 			"/>
			<polygon id="Fill-212" class="st0" points="35,21.8 31,25.9 27,21.8 21.6,21.8 21.6,41 27,41 27,29.7 31,33.7 35,29.7 35,41 
				40.5,41 40.5,21.8 			"/>
			<path id="Fill-213" class="st0" d="M40.5,0H21.6l0,19.2h5.5v-4.4l7.9,0v4.4h5.5V0z M27.1,9.3H35V5.5h-7.9V9.3z"/>
		</g>
	</g>
</g>
</svg>
